<?xml version="1.0" encoding="iso-8859-1"?>
<!-- Generator: Adobe Illustrator 19.0.0, SVG Export Plug-In . SVG Version: 6.00 Build 0)  -->
<svg version="1.1" id="Layer_1" xmlns="http://www.w3.org/2000/svg" xmlns:xlink="http://www.w3.org/1999/xlink" x="0px" y="0px"
	 viewBox="0 0 485 485" style="enable-background:new 0 0 485 485;" xml:space="preserve">
<g>
	<path d="M64.188,318.01c2.82,3.155,6.188,5.688,10.102,7.599c3.912,1.911,8.203,2.866,12.876,2.866c2.669,0,5.399-0.334,8.19-1.001
		c2.789-0.667,5.428-1.638,7.916-2.912c2.487-1.274,4.688-2.851,6.598-4.732c1.911-1.879,3.352-4.004,4.322-6.37l-12.193-7.189
		c-0.668,1.638-1.547,3.019-2.639,4.141c-1.092,1.124-2.291,2.033-3.595,2.73c-1.306,0.698-2.671,1.214-4.095,1.547
		c-1.427,0.334-2.807,0.5-4.141,0.5c-2.609,0-4.96-0.53-7.053-1.592c-2.094-1.061-3.883-2.502-5.369-4.322
		c-1.487-1.82-2.625-3.913-3.412-6.279c-0.789-2.366-1.184-4.823-1.184-7.371c0-2.366,0.333-4.701,1.001-7.007
		c0.667-2.305,1.698-4.368,3.095-6.188c1.395-1.82,3.153-3.306,5.277-4.459c2.123-1.152,4.609-1.729,7.462-1.729
		c1.334,0,2.698,0.137,4.095,0.41c1.396,0.273,2.76,0.759,4.096,1.456c1.334,0.698,2.563,1.608,3.686,2.73
		c1.121,1.123,2.047,2.534,2.775,4.231l11.466-8.008c-2.185-4.186-5.505-7.583-9.964-10.192c-4.459-2.608-9.723-3.913-15.789-3.913
		c-5.096,0-9.646,0.941-13.65,2.821c-4.004,1.881-7.402,4.338-10.191,7.371c-2.791,3.035-4.914,6.477-6.37,10.329
		c-1.456,3.854-2.185,7.721-2.185,11.603c0,4.126,0.773,8.19,2.32,12.194C59.183,311.276,61.366,314.856,64.188,318.01z"/>
	<polygon points="172.431,314.824 141.127,314.824 141.127,263.319 126.203,263.319 126.203,327.928 172.431,327.928 	"/>
	<path d="M184.988,318.237c2.79,3.064,6.157,5.537,10.102,7.417c3.942,1.881,8.311,2.821,13.104,2.821
		c4.671,0,8.979-0.91,12.922-2.73c3.943-1.82,7.34-4.231,10.192-7.234c2.851-3.003,5.081-6.475,6.688-10.419
		c1.607-3.943,2.412-8.038,2.412-12.285c0-4.063-0.76-8.068-2.275-12.012c-1.518-3.943-3.672-7.462-6.461-10.556
		c-2.791-3.094-6.158-5.581-10.102-7.462c-3.943-1.88-8.313-2.821-13.104-2.821c-4.672,0-8.979,0.896-12.922,2.685
		c-3.945,1.79-7.357,4.186-10.238,7.189c-2.882,3.003-5.127,6.477-6.733,10.419c-1.608,3.944-2.411,8.04-2.411,12.285
		c0,4.186,0.773,8.251,2.32,12.194C180.029,311.671,182.197,315.174,184.988,318.237z M192.405,288.571
		c0.696-2.335,1.759-4.414,3.185-6.233c1.425-1.82,3.186-3.291,5.278-4.414c2.093-1.122,4.563-1.684,7.417-1.684
		c2.729,0,5.141,0.532,7.234,1.592c2.093,1.063,3.867,2.488,5.323,4.277c1.456,1.79,2.548,3.853,3.276,6.188
		c0.728,2.336,1.092,4.748,1.092,7.234c0,2.427-0.35,4.809-1.047,7.144c-0.698,2.336-1.744,4.429-3.14,6.279
		c-1.396,1.852-3.155,3.353-5.278,4.504c-2.124,1.153-4.611,1.729-7.461,1.729c-2.73,0-5.158-0.546-7.281-1.638
		c-2.123-1.092-3.898-2.548-5.322-4.368c-1.427-1.82-2.503-3.897-3.23-6.233c-0.729-2.335-1.093-4.746-1.093-7.234
		C191.358,293.289,191.707,290.907,192.405,288.571z"/>
	<path d="M276.898,315.188c-2.488,0-4.945-0.333-7.371-1.001c-2.428-0.667-4.627-1.424-6.598-2.275
		c-1.973-0.849-3.626-1.698-4.96-2.548c-1.335-0.849-2.124-1.425-2.365-1.729l-6.553,13.013c1.88,1.274,3.928,2.397,6.143,3.367
		c2.214,0.971,4.505,1.806,6.871,2.502c2.365,0.698,4.791,1.229,7.279,1.593c2.487,0.364,4.914,0.546,7.28,0.546
		c3.094,0,6.097-0.35,9.009-1.046s5.49-1.82,7.735-3.367c2.243-1.547,4.05-3.579,5.414-6.097c1.365-2.517,2.048-5.596,2.048-9.236
		c0-2.972-0.471-5.52-1.41-7.644c-0.941-2.123-2.275-3.927-4.004-5.415c-1.729-1.486-3.838-2.73-6.325-3.731
		c-2.488-1.001-5.277-1.925-8.372-2.775c-2.245-0.606-4.217-1.152-5.915-1.638c-1.699-0.485-3.109-1.015-4.231-1.592
		c-1.123-0.576-1.972-1.229-2.548-1.957c-0.577-0.728-0.864-1.638-0.864-2.73c0-3.579,2.669-5.369,8.008-5.369
		c1.941,0,3.882,0.273,5.824,0.819c1.94,0.546,3.73,1.183,5.369,1.911c1.638,0.728,3.003,1.426,4.095,2.093
		c1.092,0.668,1.729,1.123,1.911,1.365l6.552-12.376c-1.456-0.849-3.049-1.698-4.777-2.548c-1.729-0.849-3.595-1.607-5.597-2.275
		c-2.002-0.667-4.095-1.213-6.279-1.638c-2.184-0.424-4.398-0.637-6.643-0.637c-3.216,0-6.265,0.455-9.146,1.365
		c-2.882,0.91-5.414,2.261-7.599,4.049c-2.184,1.791-3.913,3.99-5.187,6.598c-1.274,2.609-1.911,5.612-1.911,9.009
		c0,2.427,0.349,4.55,1.046,6.37c0.697,1.82,1.76,3.428,3.186,4.823c1.425,1.396,3.23,2.625,5.414,3.686
		c2.185,1.062,4.762,2.047,7.735,2.958c2.244,0.668,4.322,1.274,6.233,1.82s3.563,1.138,4.96,1.774
		c1.395,0.637,2.486,1.351,3.275,2.139c0.788,0.789,1.184,1.79,1.184,3.003C284.815,313.582,282.176,315.188,276.898,315.188z"/>
	<polygon points="359.525,314.824 329.041,314.824 329.041,301.083 354.521,301.083 354.521,288.98 329.041,288.98 329.041,276.423 
		358.707,276.423 358.707,263.319 314.117,263.319 314.117,327.928 359.525,327.928 	"/>
	<path d="M410.531,325.608c3.973-1.547,7.37-3.731,10.191-6.552c2.821-2.821,4.989-6.218,6.507-10.192
		c1.516-3.973,2.274-8.417,2.274-13.332c0-4.428-0.682-8.6-2.047-12.513c-1.365-3.913-3.398-7.325-6.098-10.237
		c-2.7-2.912-6.051-5.217-10.055-6.916c-4.004-1.698-8.677-2.548-14.015-2.548h-24.114v64.61h24.114
		C402.144,327.928,406.557,327.155,410.531,325.608z M388.1,276.423h9.19c2.669,0,5.065,0.455,7.189,1.365
		c2.123,0.91,3.913,2.215,5.369,3.913c1.456,1.699,2.562,3.717,3.321,6.052c0.758,2.336,1.138,4.929,1.138,7.78
		c0,2.791-0.38,5.355-1.138,7.689c-0.76,2.336-1.852,4.368-3.276,6.097c-1.426,1.729-3.2,3.08-5.323,4.049
		c-2.124,0.971-4.55,1.456-7.28,1.456h-9.19V276.423z"/>
	<path d="M348.712,166.167L242.5,59.953L136.287,166.167H0v258.879h485V166.167H348.712z M242.5,102.38l63.787,63.787H178.713
		L242.5,102.38z M455,395.047H30V196.167h425V395.047z"/>
</g>
<g>
</g>
<g>
</g>
<g>
</g>
<g>
</g>
<g>
</g>
<g>
</g>
<g>
</g>
<g>
</g>
<g>
</g>
<g>
</g>
<g>
</g>
<g>
</g>
<g>
</g>
<g>
</g>
<g>
</g>
</svg>
